<svg xmlns="http://www.w3.org/2000/svg" viewBox="0 0 64 64">
  <g transform="translate(32 32)">
    <path transform="rotate(0)" fill="#e0a512" d="M0 -8 C 6 -10 6 -24 0 -28 C -6 -24 -6 -10 0 -8 Z"/>
    <path transform="rotate(40)" fill="#e0a512" d="M0 -8 C 6 -10 6 -24 0 -28 C -6 -24 -6 -10 0 -8 Z"/>
    <path transform="rotate(80)" fill="#e0a512" d="M0 -8 C 6 -10 6 -24 0 -28 C -6 -24 -6 -10 0 -8 Z"/>
    <path transform="rotate(120)" fill="#e0a512" d="M0 -8 C 6 -10 6 -24 0 -28 C -6 -24 -6 -10 0 -8 Z"/>
    <path transform="rotate(160)" fill="#e0a512" d="M0 -8 C 6 -10 6 -24 0 -28 C -6 -24 -6 -10 0 -8 Z"/>
    <path transform="rotate(200)" fill="#e0a512" d="M0 -8 C 6 -10 6 -24 0 -28 C -6 -24 -6 -10 0 -8 Z"/>
    <path transform="rotate(240)" fill="#e0a512" d="M0 -8 C 6 -10 6 -24 0 -28 C -6 -24 -6 -10 0 -8 Z"/>
    <path transform="rotate(280)" fill="#e0a512" d="M0 -8 C 6 -10 6 -24 0 -28 C -6 -24 -6 -10 0 -8 Z"/>
    <path transform="rotate(320)" fill="#e0a512" d="M0 -8 C 6 -10 6 -24 0 -28 C -6 -24 -6 -10 0 -8 Z"/>
    <circle r="9.5" fill="#2c1d12"/>
  </g>
</svg>
