<svg xmlns="http://www.w3.org/2000/svg" viewBox="0 0 64 64">
  <g transform="translate(32 36)">
    <path d="M0 -10 Q4 -22 -2 -28 Q-10 -24 -6 -14 Z" fill="#e9a8c2"/>
    <path d="M0 -10 Q4 -22 -2 -28 Q-10 -24 -6 -14 Z" fill="#e9a8c2" transform="rotate(72)"/>
    <path d="M0 -10 Q4 -22 -2 -28 Q-10 -24 -6 -14 Z" fill="#e9a8c2" transform="rotate(144)"/>
    <path d="M0 -10 Q4 -22 -2 -28 Q-10 -24 -6 -14 Z" fill="#e9a8c2" transform="rotate(216)"/>
    <path d="M0 -10 Q4 -22 -2 -28 Q-10 -24 -6 -14 Z" fill="#e9a8c2" transform="rotate(288)"/>
    <circle r="6" fill="#e9c84a"/>
    <circle r="6" fill="none" stroke="#b38a1f" stroke-width="0.6"/>
  </g>
  <g stroke="#3d7a3d" stroke-width="3" stroke-linecap="round" fill="none">
    <path d="M32 36 Q32 48 32 60"/>
    <path d="M32 48 Q24 44 18 48 Q22 54 30 50" fill="#5a9a5a" stroke="none"/>
    <path d="M32 52 Q40 48 46 52 Q42 58 34 54" fill="#5a9a5a" stroke="none"/>
  </g>
</svg>
